<?xml version="1.0" encoding="UTF-8" standalone="no"?>
<svg width="284.339mm" height="171.45mm"
 viewBox="0 0 806 486"
 xmlns="http://www.w3.org/2000/svg" xmlns:xlink="http://www.w3.org/1999/xlink" version="1.1">
<title>Qt SVG Document</title>
<desc>MATLAB, The MathWorks, Inc. Version 26.1.0.3276743 R2026a Update 3</desc>
<defs>
</defs>
<g fill="none" stroke="black" stroke-width="1" fill-rule="evenodd" stroke-linecap="square" stroke-linejoin="bevel" >

<g fill="#ffffff" fill-opacity="1" stroke="none" transform="matrix(0.75,0,0,0.75,0,0)"
font-family="Segoe UI" font-size="9" font-weight="400" font-style="normal" 
>
<path vector-effect="none" fill-rule="evenodd" d="M0,0 L1075,0 L1075,648 L0,648 L0,0"/>
</g>

<g fill="#ffffff" fill-opacity="1" stroke="none" transform="matrix(7.5e-05,0,0,7.5e-05,0,0)"
font-family="Segoe UI" font-size="9" font-weight="400" font-style="normal" 
>
<path vector-effect="none" fill-rule="evenodd" d="M1.4e+06,490000 L1.4e+06,5.76e+06 L9.72e+06,5.76e+06 L9.72e+06,490000 L1.4e+06,490000"/>
</g>

<g fill="#212121" fill-opacity="1" stroke="#212121" stroke-opacity="1" stroke-width="1" stroke-linecap="square" stroke-linejoin="bevel" transform="matrix(0.75,0,0,0.75,405.375,458)"
font-family="Helvetica" font-size="14" font-weight="400" font-style="normal" 
>
<text fill="#212121" fill-opacity="1" stroke="none" xml:space="preserve" x="0" y="0" font-family="Helvetica" font-size="14" font-weight="400" font-style="normal" 
 >Time</text>
</g>

<g fill="#212121" fill-opacity="1" stroke="#212121" stroke-opacity="1" stroke-width="0.666667" stroke-linecap="square" stroke-linejoin="round" transform="matrix(0.75,0,0,0.75,0,0)"
font-family="Helvetica" font-size="14" font-weight="400" font-style="normal" 
>
<polyline fill="none" vector-effect="none" points="140,576 972,576 " />
<polyline fill="none" vector-effect="none" points="140,49 972,49 " />
<polyline fill="none" vector-effect="none" points="140,576 140,567.68 " />
<polyline fill="none" vector-effect="none" points="140,57.32 140,49 " />
<polyline fill="none" vector-effect="none" points="206.56,576 206.56,567.68 " />
<polyline fill="none" vector-effect="none" points="206.56,57.32 206.56,49 " />
<polyline fill="none" vector-effect="none" points="273.12,576 273.12,567.68 " />
<polyline fill="none" vector-effect="none" points="273.12,57.32 273.12,49 " />
<polyline fill="none" vector-effect="none" points="339.68,576 339.68,567.68 " />
<polyline fill="none" vector-effect="none" points="339.68,57.32 339.68,49 " />
<polyline fill="none" vector-effect="none" points="406.24,576 406.24,567.68 " />
<polyline fill="none" vector-effect="none" points="406.24,57.32 406.24,49 " />
<polyline fill="none" vector-effect="none" points="472.8,576 472.8,567.68 " />
<polyline fill="none" vector-effect="none" points="472.8,57.32 472.8,49 " />
<polyline fill="none" vector-effect="none" points="539.36,576 539.36,567.68 " />
<polyline fill="none" vector-effect="none" points="539.36,57.32 539.36,49 " />
<polyline fill="none" vector-effect="none" points="605.92,576 605.92,567.68 " />
<polyline fill="none" vector-effect="none" points="605.92,57.32 605.92,49 " />
<polyline fill="none" vector-effect="none" points="672.48,576 672.48,567.68 " />
<polyline fill="none" vector-effect="none" points="672.48,57.32 672.48,49 " />
<polyline fill="none" vector-effect="none" points="739.04,576 739.04,567.68 " />
<polyline fill="none" vector-effect="none" points="739.04,57.32 739.04,49 " />
<polyline fill="none" vector-effect="none" points="805.6,576 805.6,567.68 " />
<polyline fill="none" vector-effect="none" points="805.6,57.32 805.6,49 " />
<polyline fill="none" vector-effect="none" points="872.16,576 872.16,567.68 " />
<polyline fill="none" vector-effect="none" points="872.16,57.32 872.16,49 " />
<polyline fill="none" vector-effect="none" points="938.72,576 938.72,567.68 " />
<polyline fill="none" vector-effect="none" points="938.72,57.32 938.72,49 " />
</g>

<g fill="#212121" fill-opacity="1" stroke="#212121" stroke-opacity="1" stroke-width="1" stroke-linecap="square" stroke-linejoin="bevel" transform="matrix(0.75,0,0,0.75,102.375,445)"
font-family="Helvetica" font-size="13" font-weight="400" font-style="normal" 
>
<text fill="#212121" fill-opacity="1" stroke="none" xml:space="preserve" x="0" y="0" font-family="Helvetica" font-size="13" font-weight="400" font-style="normal" 
 >0</text>
</g>

<g fill="#212121" fill-opacity="1" stroke="#212121" stroke-opacity="1" stroke-width="1" stroke-linecap="square" stroke-linejoin="bevel" transform="matrix(0.75,0,0,0.75,152.295,445)"
font-family="Helvetica" font-size="13" font-weight="400" font-style="normal" 
>
<text fill="#212121" fill-opacity="1" stroke="none" xml:space="preserve" x="0" y="0" font-family="Helvetica" font-size="13" font-weight="400" font-style="normal" 
 >2</text>
</g>

<g fill="#212121" fill-opacity="1" stroke="#212121" stroke-opacity="1" stroke-width="1" stroke-linecap="square" stroke-linejoin="bevel" transform="matrix(0.75,0,0,0.75,202.215,445)"
font-family="Helvetica" font-size="13" font-weight="400" font-style="normal" 
>
<text fill="#212121" fill-opacity="1" stroke="none" xml:space="preserve" x="0" y="0" font-family="Helvetica" font-size="13" font-weight="400" font-style="normal" 
 >4</text>
</g>

<g fill="#212121" fill-opacity="1" stroke="#212121" stroke-opacity="1" stroke-width="1" stroke-linecap="square" stroke-linejoin="bevel" transform="matrix(0.75,0,0,0.75,252.135,445)"
font-family="Helvetica" font-size="13" font-weight="400" font-style="normal" 
>
<text fill="#212121" fill-opacity="1" stroke="none" xml:space="preserve" x="0" y="0" font-family="Helvetica" font-size="13" font-weight="400" font-style="normal" 
 >6</text>
</g>

<g fill="#212121" fill-opacity="1" stroke="#212121" stroke-opacity="1" stroke-width="1" stroke-linecap="square" stroke-linejoin="bevel" transform="matrix(0.75,0,0,0.75,302.055,445)"
font-family="Helvetica" font-size="13" font-weight="400" font-style="normal" 
>
<text fill="#212121" fill-opacity="1" stroke="none" xml:space="preserve" x="0" y="0" font-family="Helvetica" font-size="13" font-weight="400" font-style="normal" 
 >8</text>
</g>

<g fill="#212121" fill-opacity="1" stroke="#212121" stroke-opacity="1" stroke-width="1" stroke-linecap="square" stroke-linejoin="bevel" transform="matrix(0.75,0,0,0.75,349.35,445)"
font-family="Helvetica" font-size="13" font-weight="400" font-style="normal" 
>
<text fill="#212121" fill-opacity="1" stroke="none" xml:space="preserve" x="0" y="0" font-family="Helvetica" font-size="13" font-weight="400" font-style="normal" 
 >10</text>
</g>

<g fill="#212121" fill-opacity="1" stroke="#212121" stroke-opacity="1" stroke-width="1" stroke-linecap="square" stroke-linejoin="bevel" transform="matrix(0.75,0,0,0.75,399.27,445)"
font-family="Helvetica" font-size="13" font-weight="400" font-style="normal" 
>
<text fill="#212121" fill-opacity="1" stroke="none" xml:space="preserve" x="0" y="0" font-family="Helvetica" font-size="13" font-weight="400" font-style="normal" 
 >12</text>
</g>

<g fill="#212121" fill-opacity="1" stroke="#212121" stroke-opacity="1" stroke-width="1" stroke-linecap="square" stroke-linejoin="bevel" transform="matrix(0.75,0,0,0.75,449.19,445)"
font-family="Helvetica" font-size="13" font-weight="400" font-style="normal" 
>
<text fill="#212121" fill-opacity="1" stroke="none" xml:space="preserve" x="0" y="0" font-family="Helvetica" font-size="13" font-weight="400" font-style="normal" 
 >14</text>
</g>

<g fill="#212121" fill-opacity="1" stroke="#212121" stroke-opacity="1" stroke-width="1" stroke-linecap="square" stroke-linejoin="bevel" transform="matrix(0.75,0,0,0.75,499.11,445)"
font-family="Helvetica" font-size="13" font-weight="400" font-style="normal" 
>
<text fill="#212121" fill-opacity="1" stroke="none" xml:space="preserve" x="0" y="0" font-family="Helvetica" font-size="13" font-weight="400" font-style="normal" 
 >16</text>
</g>

<g fill="#212121" fill-opacity="1" stroke="#212121" stroke-opacity="1" stroke-width="1" stroke-linecap="square" stroke-linejoin="bevel" transform="matrix(0.75,0,0,0.75,549.03,445)"
font-family="Helvetica" font-size="13" font-weight="400" font-style="normal" 
>
<text fill="#212121" fill-opacity="1" stroke="none" xml:space="preserve" x="0" y="0" font-family="Helvetica" font-size="13" font-weight="400" font-style="normal" 
 >18</text>
</g>

<g fill="#212121" fill-opacity="1" stroke="#212121" stroke-opacity="1" stroke-width="1" stroke-linecap="square" stroke-linejoin="bevel" transform="matrix(0.75,0,0,0.75,598.95,445)"
font-family="Helvetica" font-size="13" font-weight="400" font-style="normal" 
>
<text fill="#212121" fill-opacity="1" stroke="none" xml:space="preserve" x="0" y="0" font-family="Helvetica" font-size="13" font-weight="400" font-style="normal" 
 >20</text>
</g>

<g fill="#212121" fill-opacity="1" stroke="#212121" stroke-opacity="1" stroke-width="1" stroke-linecap="square" stroke-linejoin="bevel" transform="matrix(0.75,0,0,0.75,648.87,445)"
font-family="Helvetica" font-size="13" font-weight="400" font-style="normal" 
>
<text fill="#212121" fill-opacity="1" stroke="none" xml:space="preserve" x="0" y="0" font-family="Helvetica" font-size="13" font-weight="400" font-style="normal" 
 >22</text>
</g>

<g fill="#212121" fill-opacity="1" stroke="#212121" stroke-opacity="1" stroke-width="1" stroke-linecap="square" stroke-linejoin="bevel" transform="matrix(0.75,0,0,0.75,698.79,445)"
font-family="Helvetica" font-size="13" font-weight="400" font-style="normal" 
>
<text fill="#212121" fill-opacity="1" stroke="none" xml:space="preserve" x="0" y="0" font-family="Helvetica" font-size="13" font-weight="400" font-style="normal" 
 >24</text>
</g>

<g fill="#212121" fill-opacity="1" stroke="#212121" stroke-opacity="1" stroke-width="1" stroke-linecap="square" stroke-linejoin="bevel" transform="matrix(0,-0.75,0.75,0,84.5,303.75)"
font-family="Helvetica" font-size="14" font-weight="400" font-style="normal" 
>
<text fill="#212121" fill-opacity="1" stroke="none" xml:space="preserve" x="0" y="0" font-family="Helvetica" font-size="14" font-weight="400" font-style="normal" 
 >Available PV generation (kW)</text>
</g>

<g fill="#212121" fill-opacity="1" stroke="#212121" stroke-opacity="1" stroke-width="0.666667" stroke-linecap="square" stroke-linejoin="round" transform="matrix(0.75,0,0,0.75,0,0)"
font-family="Helvetica" font-size="14" font-weight="400" font-style="normal" 
>
<polyline fill="none" vector-effect="none" points="140,576 140,49 " />
<polyline fill="none" vector-effect="none" points="972,576 972,49 " />
<polyline fill="none" vector-effect="none" points="140,576 148.32,576 " />
<polyline fill="none" vector-effect="none" points="963.68,576 972,576 " />
<polyline fill="none" vector-effect="none" points="140,523.3 148.32,523.3 " />
<polyline fill="none" vector-effect="none" points="963.68,523.3 972,523.3 " />
<polyline fill="none" vector-effect="none" points="140,470.6 148.32,470.6 " />
<polyline fill="none" vector-effect="none" points="963.68,470.6 972,470.6 " />
<polyline fill="none" vector-effect="none" points="140,417.9 148.32,417.9 " />
<polyline fill="none" vector-effect="none" points="963.68,417.9 972,417.9 " />
<polyline fill="none" vector-effect="none" points="140,365.2 148.32,365.2 " />
<polyline fill="none" vector-effect="none" points="963.68,365.2 972,365.2 " />
<polyline fill="none" vector-effect="none" points="140,312.5 148.32,312.5 " />
<polyline fill="none" vector-effect="none" points="963.68,312.5 972,312.5 " />
<polyline fill="none" vector-effect="none" points="140,259.8 148.32,259.8 " />
<polyline fill="none" vector-effect="none" points="963.68,259.8 972,259.8 " />
<polyline fill="none" vector-effect="none" points="140,207.1 148.32,207.1 " />
<polyline fill="none" vector-effect="none" points="963.68,207.1 972,207.1 " />
<polyline fill="none" vector-effect="none" points="140,154.4 148.32,154.4 " />
<polyline fill="none" vector-effect="none" points="963.68,154.4 972,154.4 " />
<polyline fill="none" vector-effect="none" points="140,101.7 148.32,101.7 " />
<polyline fill="none" vector-effect="none" points="963.68,101.7 972,101.7 " />
<polyline fill="none" vector-effect="none" points="140,49 148.32,49 " />
<polyline fill="none" vector-effect="none" points="963.68,49 972,49 " />
</g>

<g fill="#212121" fill-opacity="1" stroke="#212121" stroke-opacity="1" stroke-width="1" stroke-linecap="square" stroke-linejoin="bevel" transform="matrix(0.75,0,0,0.75,95.75,435.375)"
font-family="Helvetica" font-size="13" font-weight="400" font-style="normal" 
>
<text fill="#212121" fill-opacity="1" stroke="none" xml:space="preserve" x="0" y="0" font-family="Helvetica" font-size="13" font-weight="400" font-style="normal" 
 >0</text>
</g>

<g fill="#212121" fill-opacity="1" stroke="#212121" stroke-opacity="1" stroke-width="1" stroke-linecap="square" stroke-linejoin="bevel" transform="matrix(0.75,0,0,0.75,95.75,395.85)"
font-family="Helvetica" font-size="13" font-weight="400" font-style="normal" 
>
<text fill="#212121" fill-opacity="1" stroke="none" xml:space="preserve" x="0" y="0" font-family="Helvetica" font-size="13" font-weight="400" font-style="normal" 
 >2</text>
</g>

<g fill="#212121" fill-opacity="1" stroke="#212121" stroke-opacity="1" stroke-width="1" stroke-linecap="square" stroke-linejoin="bevel" transform="matrix(0.75,0,0,0.75,95.75,356.325)"
font-family="Helvetica" font-size="13" font-weight="400" font-style="normal" 
>
<text fill="#212121" fill-opacity="1" stroke="none" xml:space="preserve" x="0" y="0" font-family="Helvetica" font-size="13" font-weight="400" font-style="normal" 
 >4</text>
</g>

<g fill="#212121" fill-opacity="1" stroke="#212121" stroke-opacity="1" stroke-width="1" stroke-linecap="square" stroke-linejoin="bevel" transform="matrix(0.75,0,0,0.75,95.75,316.8)"
font-family="Helvetica" font-size="13" font-weight="400" font-style="normal" 
>
<text fill="#212121" fill-opacity="1" stroke="none" xml:space="preserve" x="0" y="0" font-family="Helvetica" font-size="13" font-weight="400" font-style="normal" 
 >6</text>
</g>

<g fill="#212121" fill-opacity="1" stroke="#212121" stroke-opacity="1" stroke-width="1" stroke-linecap="square" stroke-linejoin="bevel" transform="matrix(0.75,0,0,0.75,95.75,277.275)"
font-family="Helvetica" font-size="13" font-weight="400" font-style="normal" 
>
<text fill="#212121" fill-opacity="1" stroke="none" xml:space="preserve" x="0" y="0" font-family="Helvetica" font-size="13" font-weight="400" font-style="normal" 
 >8</text>
</g>

<g fill="#212121" fill-opacity="1" stroke="#212121" stroke-opacity="1" stroke-width="1" stroke-linecap="square" stroke-linejoin="bevel" transform="matrix(0.75,0,0,0.75,90.5,237.75)"
font-family="Helvetica" font-size="13" font-weight="400" font-style="normal" 
>
<text fill="#212121" fill-opacity="1" stroke="none" xml:space="preserve" x="0" y="0" font-family="Helvetica" font-size="13" font-weight="400" font-style="normal" 
 >10</text>
</g>

<g fill="#212121" fill-opacity="1" stroke="#212121" stroke-opacity="1" stroke-width="1" stroke-linecap="square" stroke-linejoin="bevel" transform="matrix(0.75,0,0,0.75,90.5,198.225)"
font-family="Helvetica" font-size="13" font-weight="400" font-style="normal" 
>
<text fill="#212121" fill-opacity="1" stroke="none" xml:space="preserve" x="0" y="0" font-family="Helvetica" font-size="13" font-weight="400" font-style="normal" 
 >12</text>
</g>

<g fill="#212121" fill-opacity="1" stroke="#212121" stroke-opacity="1" stroke-width="1" stroke-linecap="square" stroke-linejoin="bevel" transform="matrix(0.75,0,0,0.75,90.5,158.7)"
font-family="Helvetica" font-size="13" font-weight="400" font-style="normal" 
>
<text fill="#212121" fill-opacity="1" stroke="none" xml:space="preserve" x="0" y="0" font-family="Helvetica" font-size="13" font-weight="400" font-style="normal" 
 >14</text>
</g>

<g fill="#212121" fill-opacity="1" stroke="#212121" stroke-opacity="1" stroke-width="1" stroke-linecap="square" stroke-linejoin="bevel" transform="matrix(0.75,0,0,0.75,90.5,119.175)"
font-family="Helvetica" font-size="13" font-weight="400" font-style="normal" 
>
<text fill="#212121" fill-opacity="1" stroke="none" xml:space="preserve" x="0" y="0" font-family="Helvetica" font-size="13" font-weight="400" font-style="normal" 
 >16</text>
</g>

<g fill="#212121" fill-opacity="1" stroke="#212121" stroke-opacity="1" stroke-width="1" stroke-linecap="square" stroke-linejoin="bevel" transform="matrix(0.75,0,0,0.75,90.5,79.65)"
font-family="Helvetica" font-size="13" font-weight="400" font-style="normal" 
>
<text fill="#212121" fill-opacity="1" stroke="none" xml:space="preserve" x="0" y="0" font-family="Helvetica" font-size="13" font-weight="400" font-style="normal" 
 >18</text>
</g>

<g fill="#212121" fill-opacity="1" stroke="#212121" stroke-opacity="1" stroke-width="1" stroke-linecap="square" stroke-linejoin="bevel" transform="matrix(0.75,0,0,0.75,90.5,40.125)"
font-family="Helvetica" font-size="13" font-weight="400" font-style="normal" 
>
<text fill="#212121" fill-opacity="1" stroke="none" xml:space="preserve" x="0" y="0" font-family="Helvetica" font-size="13" font-weight="400" font-style="normal" 
 >20</text>
</g>

<g fill="none" stroke="#3399cc" stroke-opacity="1" stroke-width="4" stroke-linecap="butt" stroke-linejoin="round" transform="matrix(0.75,0,0,0.75,0,0)"
font-family="Helvetica" font-size="13" font-weight="400" font-style="normal" 
>
<polyline fill="none" vector-effect="none" points="173.28,576 206.56,576 239.84,576 273.12,576 306.4,576 339.68,551.948 372.96,470.046 406.24,364.767 439.52,271.552 472.8,194.268 506.08,135.483 539.36,92.7858 572.64,72.2776 605.92,72.2776 639.2,88.6383 672.48,139.876 705.76,276.561 739.04,359.419 772.32,522.286 805.6,576 838.88,576 872.16,576 905.44,576 938.72,576 " />
</g>

<g fill="none" stroke="#cc3333" stroke-opacity="1" stroke-width="4" stroke-linecap="butt" stroke-linejoin="round" transform="matrix(0.75,0,0,0.75,0,0)"
font-family="Helvetica" font-size="13" font-weight="400" font-style="normal" 
>
<polyline fill="none" vector-effect="none" points="173.28,576 206.56,576 239.84,576 273.12,576 306.4,576 339.68,571.951 372.96,544.252 406.24,472.68 439.52,438.975 472.8,417.652 506.08,352.709 539.36,350.585 572.64,276.561 605.92,255.668 639.2,216.557 672.48,318.643 705.76,352.124 739.04,455.121 772.32,520.227 805.6,576 838.88,576 872.16,576 905.44,576 938.72,576 " />
</g>

<g fill="none" stroke="#80e64d" stroke-opacity="1" stroke-width="4" stroke-linecap="butt" stroke-linejoin="round" transform="matrix(0.75,0,0,0.75,0,0)"
font-family="Helvetica" font-size="13" font-weight="400" font-style="normal" 
>
<polyline fill="none" vector-effect="none" points="173.28,576 206.56,576 239.84,576 273.12,576 306.4,576 339.68,573.763 372.96,560.874 406.24,508.56 439.52,451.098 472.8,532.971 506.08,521.756 539.36,519.58 572.64,535.934 605.92,503.891 639.2,450.476 672.48,473.195 705.76,517.054 739.04,493.485 772.32,545.681 805.6,576 838.88,576 872.16,576 905.44,576 938.72,576 " />
</g>

<g fill="#ffffff" fill-opacity="1" stroke="none" transform="matrix(7.5e-05,0,0,7.5e-05,0,0)"
font-family="Helvetica" font-size="13" font-weight="400" font-style="normal" 
>
<path vector-effect="none" fill-rule="evenodd" d="M8.52e+06,600000 L8.52e+06,1.07e+06 L9.61e+06,1.07e+06 L9.61e+06,600000 L8.52e+06,600000"/>
</g>

<g fill="#3399cc" fill-opacity="1" stroke="#3399cc" stroke-opacity="1" stroke-width="4" stroke-linecap="butt" stroke-linejoin="round" transform="matrix(0.75,0,0,0.75,0,0)"
font-family="Helvetica" font-size="13" font-weight="400" font-style="normal" 
>
<polyline fill="none" vector-effect="none" points="856,69 896,69 " />
</g>

<g fill="#cc3333" fill-opacity="1" stroke="#cc3333" stroke-opacity="1" stroke-width="4" stroke-linecap="butt" stroke-linejoin="round" transform="matrix(0.75,0,0,0.75,0,0)"
font-family="Helvetica" font-size="13" font-weight="400" font-style="normal" 
>
<polyline fill="none" vector-effect="none" points="856,83.5 896,83.5 " />
</g>

<g fill="#80e64d" fill-opacity="1" stroke="#80e64d" stroke-opacity="1" stroke-width="4" stroke-linecap="butt" stroke-linejoin="round" transform="matrix(0.75,0,0,0.75,0,0)"
font-family="Helvetica" font-size="13" font-weight="400" font-style="normal" 
>
<polyline fill="none" vector-effect="none" points="856,98 896,98 " />
</g>

<g fill="#212121" fill-opacity="1" stroke="#212121" stroke-opacity="1" stroke-width="1" stroke-linecap="square" stroke-linejoin="bevel" transform="matrix(0.75,0,0,0.75,674.25,54.75)"
font-family="Helvetica" font-size="12" font-weight="400" font-style="normal" 
>
<text fill="#212121" fill-opacity="1" stroke="none" xml:space="preserve" x="0" y="0" font-family="Helvetica" font-size="12" font-weight="400" font-style="normal" 
 >Scenario 1</text>
</g>

<g fill="#212121" fill-opacity="1" stroke="#212121" stroke-opacity="1" stroke-width="1" stroke-linecap="square" stroke-linejoin="bevel" transform="matrix(0.75,0,0,0.75,674.25,65.625)"
font-family="Helvetica" font-size="12" font-weight="400" font-style="normal" 
>
<text fill="#212121" fill-opacity="1" stroke="none" xml:space="preserve" x="0" y="0" font-family="Helvetica" font-size="12" font-weight="400" font-style="normal" 
 >Scenario 2</text>
</g>

<g fill="#212121" fill-opacity="1" stroke="#212121" stroke-opacity="1" stroke-width="1" stroke-linecap="square" stroke-linejoin="bevel" transform="matrix(0.75,0,0,0.75,674.25,76.5)"
font-family="Helvetica" font-size="12" font-weight="400" font-style="normal" 
>
<text fill="#212121" fill-opacity="1" stroke="none" xml:space="preserve" x="0" y="0" font-family="Helvetica" font-size="12" font-weight="400" font-style="normal" 
 >Scenario 3</text>
</g>

<g fill="none" stroke="#212121" stroke-opacity="1" stroke-width="0.666667" stroke-linecap="butt" stroke-linejoin="miter" stroke-miterlimit="5" transform="matrix(0.75,0,0,0.75,0,0)"
font-family="Helvetica" font-size="12" font-weight="400" font-style="normal" 
>
<path vector-effect="none" fill-rule="evenodd" d="M852,107 L852,60 L961,60 L961,107 L852,107"/>
</g>
</g>
</svg>
