<?xml version="1.0" encoding="UTF-8" standalone="no"?>
<svg width="284.339mm" height="171.45mm"
 viewBox="0 0 806 486"
 xmlns="http://www.w3.org/2000/svg" xmlns:xlink="http://www.w3.org/1999/xlink" version="1.1">
<title>Qt SVG Document</title>
<desc>MATLAB, The MathWorks, Inc. Version 26.1.0.3276743 R2026a Update 3</desc>
<defs>
</defs>
<g fill="none" stroke="black" stroke-width="1" fill-rule="evenodd" stroke-linecap="square" stroke-linejoin="bevel" >

<g fill="#ffffff" fill-opacity="1" stroke="none" transform="matrix(0.75,0,0,0.75,0,0)"
font-family="Segoe UI" font-size="9" font-weight="400" font-style="normal" 
>
<path vector-effect="none" fill-rule="evenodd" d="M0,0 L1075,0 L1075,648 L0,648 L0,0"/>
</g>

<g fill="#ffffff" fill-opacity="1" stroke="none" transform="matrix(7.5e-05,0,0,7.5e-05,0,0)"
font-family="Segoe UI" font-size="9" font-weight="400" font-style="normal" 
>
<path vector-effect="none" fill-rule="evenodd" d="M1.4e+06,490000 L1.4e+06,5.76e+06 L9.72e+06,5.76e+06 L9.72e+06,490000 L1.4e+06,490000"/>
</g>

<g fill="#212121" fill-opacity="1" stroke="#212121" stroke-opacity="1" stroke-width="1" stroke-linecap="square" stroke-linejoin="bevel" transform="matrix(0.75,0,0,0.75,405.375,458)"
font-family="Helvetica" font-size="14" font-weight="400" font-style="normal" 
>
<text fill="#212121" fill-opacity="1" stroke="none" xml:space="preserve" x="0" y="0" font-family="Helvetica" font-size="14" font-weight="400" font-style="normal" 
 >Time</text>
</g>

<g fill="#212121" fill-opacity="1" stroke="#212121" stroke-opacity="1" stroke-width="0.666667" stroke-linecap="square" stroke-linejoin="round" transform="matrix(0.75,0,0,0.75,0,0)"
font-family="Helvetica" font-size="14" font-weight="400" font-style="normal" 
>
<polyline fill="none" vector-effect="none" points="140,576 972,576 " />
<polyline fill="none" vector-effect="none" points="140,49 972,49 " />
<polyline fill="none" vector-effect="none" points="140,576 140,567.68 " />
<polyline fill="none" vector-effect="none" points="140,57.32 140,49 " />
<polyline fill="none" vector-effect="none" points="206.56,576 206.56,567.68 " />
<polyline fill="none" vector-effect="none" points="206.56,57.32 206.56,49 " />
<polyline fill="none" vector-effect="none" points="273.12,576 273.12,567.68 " />
<polyline fill="none" vector-effect="none" points="273.12,57.32 273.12,49 " />
<polyline fill="none" vector-effect="none" points="339.68,576 339.68,567.68 " />
<polyline fill="none" vector-effect="none" points="339.68,57.32 339.68,49 " />
<polyline fill="none" vector-effect="none" points="406.24,576 406.24,567.68 " />
<polyline fill="none" vector-effect="none" points="406.24,57.32 406.24,49 " />
<polyline fill="none" vector-effect="none" points="472.8,576 472.8,567.68 " />
<polyline fill="none" vector-effect="none" points="472.8,57.32 472.8,49 " />
<polyline fill="none" vector-effect="none" points="539.36,576 539.36,567.68 " />
<polyline fill="none" vector-effect="none" points="539.36,57.32 539.36,49 " />
<polyline fill="none" vector-effect="none" points="605.92,576 605.92,567.68 " />
<polyline fill="none" vector-effect="none" points="605.92,57.32 605.92,49 " />
<polyline fill="none" vector-effect="none" points="672.48,576 672.48,567.68 " />
<polyline fill="none" vector-effect="none" points="672.48,57.32 672.48,49 " />
<polyline fill="none" vector-effect="none" points="739.04,576 739.04,567.68 " />
<polyline fill="none" vector-effect="none" points="739.04,57.32 739.04,49 " />
<polyline fill="none" vector-effect="none" points="805.6,576 805.6,567.68 " />
<polyline fill="none" vector-effect="none" points="805.6,57.32 805.6,49 " />
<polyline fill="none" vector-effect="none" points="872.16,576 872.16,567.68 " />
<polyline fill="none" vector-effect="none" points="872.16,57.32 872.16,49 " />
<polyline fill="none" vector-effect="none" points="938.72,576 938.72,567.68 " />
<polyline fill="none" vector-effect="none" points="938.72,57.32 938.72,49 " />
</g>

<g fill="#212121" fill-opacity="1" stroke="#212121" stroke-opacity="1" stroke-width="1" stroke-linecap="square" stroke-linejoin="bevel" transform="matrix(0.75,0,0,0.75,102.375,445)"
font-family="Helvetica" font-size="13" font-weight="400" font-style="normal" 
>
<text fill="#212121" fill-opacity="1" stroke="none" xml:space="preserve" x="0" y="0" font-family="Helvetica" font-size="13" font-weight="400" font-style="normal" 
 >0</text>
</g>

<g fill="#212121" fill-opacity="1" stroke="#212121" stroke-opacity="1" stroke-width="1" stroke-linecap="square" stroke-linejoin="bevel" transform="matrix(0.75,0,0,0.75,152.295,445)"
font-family="Helvetica" font-size="13" font-weight="400" font-style="normal" 
>
<text fill="#212121" fill-opacity="1" stroke="none" xml:space="preserve" x="0" y="0" font-family="Helvetica" font-size="13" font-weight="400" font-style="normal" 
 >2</text>
</g>

<g fill="#212121" fill-opacity="1" stroke="#212121" stroke-opacity="1" stroke-width="1" stroke-linecap="square" stroke-linejoin="bevel" transform="matrix(0.75,0,0,0.75,202.215,445)"
font-family="Helvetica" font-size="13" font-weight="400" font-style="normal" 
>
<text fill="#212121" fill-opacity="1" stroke="none" xml:space="preserve" x="0" y="0" font-family="Helvetica" font-size="13" font-weight="400" font-style="normal" 
 >4</text>
</g>

<g fill="#212121" fill-opacity="1" stroke="#212121" stroke-opacity="1" stroke-width="1" stroke-linecap="square" stroke-linejoin="bevel" transform="matrix(0.75,0,0,0.75,252.135,445)"
font-family="Helvetica" font-size="13" font-weight="400" font-style="normal" 
>
<text fill="#212121" fill-opacity="1" stroke="none" xml:space="preserve" x="0" y="0" font-family="Helvetica" font-size="13" font-weight="400" font-style="normal" 
 >6</text>
</g>

<g fill="#212121" fill-opacity="1" stroke="#212121" stroke-opacity="1" stroke-width="1" stroke-linecap="square" stroke-linejoin="bevel" transform="matrix(0.75,0,0,0.75,302.055,445)"
font-family="Helvetica" font-size="13" font-weight="400" font-style="normal" 
>
<text fill="#212121" fill-opacity="1" stroke="none" xml:space="preserve" x="0" y="0" font-family="Helvetica" font-size="13" font-weight="400" font-style="normal" 
 >8</text>
</g>

<g fill="#212121" fill-opacity="1" stroke="#212121" stroke-opacity="1" stroke-width="1" stroke-linecap="square" stroke-linejoin="bevel" transform="matrix(0.75,0,0,0.75,349.35,445)"
font-family="Helvetica" font-size="13" font-weight="400" font-style="normal" 
>
<text fill="#212121" fill-opacity="1" stroke="none" xml:space="preserve" x="0" y="0" font-family="Helvetica" font-size="13" font-weight="400" font-style="normal" 
 >10</text>
</g>

<g fill="#212121" fill-opacity="1" stroke="#212121" stroke-opacity="1" stroke-width="1" stroke-linecap="square" stroke-linejoin="bevel" transform="matrix(0.75,0,0,0.75,399.27,445)"
font-family="Helvetica" font-size="13" font-weight="400" font-style="normal" 
>
<text fill="#212121" fill-opacity="1" stroke="none" xml:space="preserve" x="0" y="0" font-family="Helvetica" font-size="13" font-weight="400" font-style="normal" 
 >12</text>
</g>

<g fill="#212121" fill-opacity="1" stroke="#212121" stroke-opacity="1" stroke-width="1" stroke-linecap="square" stroke-linejoin="bevel" transform="matrix(0.75,0,0,0.75,449.19,445)"
font-family="Helvetica" font-size="13" font-weight="400" font-style="normal" 
>
<text fill="#212121" fill-opacity="1" stroke="none" xml:space="preserve" x="0" y="0" font-family="Helvetica" font-size="13" font-weight="400" font-style="normal" 
 >14</text>
</g>

<g fill="#212121" fill-opacity="1" stroke="#212121" stroke-opacity="1" stroke-width="1" stroke-linecap="square" stroke-linejoin="bevel" transform="matrix(0.75,0,0,0.75,499.11,445)"
font-family="Helvetica" font-size="13" font-weight="400" font-style="normal" 
>
<text fill="#212121" fill-opacity="1" stroke="none" xml:space="preserve" x="0" y="0" font-family="Helvetica" font-size="13" font-weight="400" font-style="normal" 
 >16</text>
</g>

<g fill="#212121" fill-opacity="1" stroke="#212121" stroke-opacity="1" stroke-width="1" stroke-linecap="square" stroke-linejoin="bevel" transform="matrix(0.75,0,0,0.75,549.03,445)"
font-family="Helvetica" font-size="13" font-weight="400" font-style="normal" 
>
<text fill="#212121" fill-opacity="1" stroke="none" xml:space="preserve" x="0" y="0" font-family="Helvetica" font-size="13" font-weight="400" font-style="normal" 
 >18</text>
</g>

<g fill="#212121" fill-opacity="1" stroke="#212121" stroke-opacity="1" stroke-width="1" stroke-linecap="square" stroke-linejoin="bevel" transform="matrix(0.75,0,0,0.75,598.95,445)"
font-family="Helvetica" font-size="13" font-weight="400" font-style="normal" 
>
<text fill="#212121" fill-opacity="1" stroke="none" xml:space="preserve" x="0" y="0" font-family="Helvetica" font-size="13" font-weight="400" font-style="normal" 
 >20</text>
</g>

<g fill="#212121" fill-opacity="1" stroke="#212121" stroke-opacity="1" stroke-width="1" stroke-linecap="square" stroke-linejoin="bevel" transform="matrix(0.75,0,0,0.75,648.87,445)"
font-family="Helvetica" font-size="13" font-weight="400" font-style="normal" 
>
<text fill="#212121" fill-opacity="1" stroke="none" xml:space="preserve" x="0" y="0" font-family="Helvetica" font-size="13" font-weight="400" font-style="normal" 
 >22</text>
</g>

<g fill="#212121" fill-opacity="1" stroke="#212121" stroke-opacity="1" stroke-width="1" stroke-linecap="square" stroke-linejoin="bevel" transform="matrix(0.75,0,0,0.75,698.79,445)"
font-family="Helvetica" font-size="13" font-weight="400" font-style="normal" 
>
<text fill="#212121" fill-opacity="1" stroke="none" xml:space="preserve" x="0" y="0" font-family="Helvetica" font-size="13" font-weight="400" font-style="normal" 
 >24</text>
</g>

<g fill="#212121" fill-opacity="1" stroke="#212121" stroke-opacity="1" stroke-width="1" stroke-linecap="square" stroke-linejoin="bevel" transform="matrix(0,-0.75,0.75,0,84.5,292.125)"
font-family="Helvetica" font-size="14" font-weight="400" font-style="normal" 
>
<text fill="#212121" fill-opacity="1" stroke="none" xml:space="preserve" x="0" y="0" font-family="Helvetica" font-size="14" font-weight="400" font-style="normal" 
 >EV charging power (kW)</text>
</g>

<g fill="#212121" fill-opacity="1" stroke="#212121" stroke-opacity="1" stroke-width="0.666667" stroke-linecap="square" stroke-linejoin="round" transform="matrix(0.75,0,0,0.75,0,0)"
font-family="Helvetica" font-size="14" font-weight="400" font-style="normal" 
>
<polyline fill="none" vector-effect="none" points="140,576 140,49 " />
<polyline fill="none" vector-effect="none" points="972,576 972,49 " />
<polyline fill="none" vector-effect="none" points="140,576 148.32,576 " />
<polyline fill="none" vector-effect="none" points="963.68,576 972,576 " />
<polyline fill="none" vector-effect="none" points="140,517.444 148.32,517.444 " />
<polyline fill="none" vector-effect="none" points="963.68,517.444 972,517.444 " />
<polyline fill="none" vector-effect="none" points="140,458.889 148.32,458.889 " />
<polyline fill="none" vector-effect="none" points="963.68,458.889 972,458.889 " />
<polyline fill="none" vector-effect="none" points="140,400.333 148.32,400.333 " />
<polyline fill="none" vector-effect="none" points="963.68,400.333 972,400.333 " />
<polyline fill="none" vector-effect="none" points="140,341.778 148.32,341.778 " />
<polyline fill="none" vector-effect="none" points="963.68,341.778 972,341.778 " />
<polyline fill="none" vector-effect="none" points="140,283.222 148.32,283.222 " />
<polyline fill="none" vector-effect="none" points="963.68,283.222 972,283.222 " />
<polyline fill="none" vector-effect="none" points="140,224.667 148.32,224.667 " />
<polyline fill="none" vector-effect="none" points="963.68,224.667 972,224.667 " />
<polyline fill="none" vector-effect="none" points="140,166.111 148.32,166.111 " />
<polyline fill="none" vector-effect="none" points="963.68,166.111 972,166.111 " />
<polyline fill="none" vector-effect="none" points="140,107.556 148.32,107.556 " />
<polyline fill="none" vector-effect="none" points="963.68,107.556 972,107.556 " />
<polyline fill="none" vector-effect="none" points="140,49 148.32,49 " />
<polyline fill="none" vector-effect="none" points="963.68,49 972,49 " />
</g>

<g fill="#212121" fill-opacity="1" stroke="#212121" stroke-opacity="1" stroke-width="1" stroke-linecap="square" stroke-linejoin="bevel" transform="matrix(0.75,0,0,0.75,95.75,435.375)"
font-family="Helvetica" font-size="13" font-weight="400" font-style="normal" 
>
<text fill="#212121" fill-opacity="1" stroke="none" xml:space="preserve" x="0" y="0" font-family="Helvetica" font-size="13" font-weight="400" font-style="normal" 
 >0</text>
</g>

<g fill="#212121" fill-opacity="1" stroke="#212121" stroke-opacity="1" stroke-width="1" stroke-linecap="square" stroke-linejoin="bevel" transform="matrix(0.75,0,0,0.75,95.75,391.458)"
font-family="Helvetica" font-size="13" font-weight="400" font-style="normal" 
>
<text fill="#212121" fill-opacity="1" stroke="none" xml:space="preserve" x="0" y="0" font-family="Helvetica" font-size="13" font-weight="400" font-style="normal" 
 >2</text>
</g>

<g fill="#212121" fill-opacity="1" stroke="#212121" stroke-opacity="1" stroke-width="1" stroke-linecap="square" stroke-linejoin="bevel" transform="matrix(0.75,0,0,0.75,95.75,347.542)"
font-family="Helvetica" font-size="13" font-weight="400" font-style="normal" 
>
<text fill="#212121" fill-opacity="1" stroke="none" xml:space="preserve" x="0" y="0" font-family="Helvetica" font-size="13" font-weight="400" font-style="normal" 
 >4</text>
</g>

<g fill="#212121" fill-opacity="1" stroke="#212121" stroke-opacity="1" stroke-width="1" stroke-linecap="square" stroke-linejoin="bevel" transform="matrix(0.75,0,0,0.75,95.75,303.625)"
font-family="Helvetica" font-size="13" font-weight="400" font-style="normal" 
>
<text fill="#212121" fill-opacity="1" stroke="none" xml:space="preserve" x="0" y="0" font-family="Helvetica" font-size="13" font-weight="400" font-style="normal" 
 >6</text>
</g>

<g fill="#212121" fill-opacity="1" stroke="#212121" stroke-opacity="1" stroke-width="1" stroke-linecap="square" stroke-linejoin="bevel" transform="matrix(0.75,0,0,0.75,95.75,259.708)"
font-family="Helvetica" font-size="13" font-weight="400" font-style="normal" 
>
<text fill="#212121" fill-opacity="1" stroke="none" xml:space="preserve" x="0" y="0" font-family="Helvetica" font-size="13" font-weight="400" font-style="normal" 
 >8</text>
</g>

<g fill="#212121" fill-opacity="1" stroke="#212121" stroke-opacity="1" stroke-width="1" stroke-linecap="square" stroke-linejoin="bevel" transform="matrix(0.75,0,0,0.75,90.5,215.792)"
font-family="Helvetica" font-size="13" font-weight="400" font-style="normal" 
>
<text fill="#212121" fill-opacity="1" stroke="none" xml:space="preserve" x="0" y="0" font-family="Helvetica" font-size="13" font-weight="400" font-style="normal" 
 >10</text>
</g>

<g fill="#212121" fill-opacity="1" stroke="#212121" stroke-opacity="1" stroke-width="1" stroke-linecap="square" stroke-linejoin="bevel" transform="matrix(0.75,0,0,0.75,90.5,171.875)"
font-family="Helvetica" font-size="13" font-weight="400" font-style="normal" 
>
<text fill="#212121" fill-opacity="1" stroke="none" xml:space="preserve" x="0" y="0" font-family="Helvetica" font-size="13" font-weight="400" font-style="normal" 
 >12</text>
</g>

<g fill="#212121" fill-opacity="1" stroke="#212121" stroke-opacity="1" stroke-width="1" stroke-linecap="square" stroke-linejoin="bevel" transform="matrix(0.75,0,0,0.75,90.5,127.958)"
font-family="Helvetica" font-size="13" font-weight="400" font-style="normal" 
>
<text fill="#212121" fill-opacity="1" stroke="none" xml:space="preserve" x="0" y="0" font-family="Helvetica" font-size="13" font-weight="400" font-style="normal" 
 >14</text>
</g>

<g fill="#212121" fill-opacity="1" stroke="#212121" stroke-opacity="1" stroke-width="1" stroke-linecap="square" stroke-linejoin="bevel" transform="matrix(0.75,0,0,0.75,90.5,84.0417)"
font-family="Helvetica" font-size="13" font-weight="400" font-style="normal" 
>
<text fill="#212121" fill-opacity="1" stroke="none" xml:space="preserve" x="0" y="0" font-family="Helvetica" font-size="13" font-weight="400" font-style="normal" 
 >16</text>
</g>

<g fill="#212121" fill-opacity="1" stroke="#212121" stroke-opacity="1" stroke-width="1" stroke-linecap="square" stroke-linejoin="bevel" transform="matrix(0.75,0,0,0.75,90.5,40.125)"
font-family="Helvetica" font-size="13" font-weight="400" font-style="normal" 
>
<text fill="#212121" fill-opacity="1" stroke="none" xml:space="preserve" x="0" y="0" font-family="Helvetica" font-size="13" font-weight="400" font-style="normal" 
 >18</text>
</g>

<g fill="none" stroke="#d42424" stroke-opacity="1" stroke-width="2.66667" stroke-linecap="butt" stroke-linejoin="round" transform="matrix(0.75,0,0,0.75,0,0)"
font-family="Helvetica" font-size="13" font-weight="400" font-style="normal" 
>
<polyline fill="none" vector-effect="none" points="173.28,576 206.56,576 239.84,576 273.12,576 306.4,576 339.68,576 372.96,576 406.24,576 439.52,576 472.8,576 506.08,576 539.36,433.117 572.64,115.809 605.92,576 639.2,576 672.48,576 705.76,576 739.04,576 772.32,576 805.6,576 838.88,576 872.16,576 905.44,576 938.72,576 " />
</g>

<g fill="#d42424" fill-opacity="1" stroke="#d42424" stroke-opacity="1" stroke-width="2.66667" stroke-linecap="butt" stroke-linejoin="miter" stroke-miterlimit="5" transform="matrix(0.75,0,0,0.75,0,0)"
font-family="Helvetica" font-size="13" font-weight="400" font-style="normal" 
>
<polyline fill="none" vector-effect="none" points="173.28,572 173.28,580 " />
<polyline fill="none" vector-effect="none" points="169.28,576 177.28,576 " />
<polyline fill="none" vector-effect="none" points="170.452,573.172 176.108,578.828 " />
<polyline fill="none" vector-effect="none" points="170.452,578.828 176.108,573.172 " />
<polyline fill="none" vector-effect="none" points="206.56,572 206.56,580 " />
<polyline fill="none" vector-effect="none" points="202.56,576 210.56,576 " />
<polyline fill="none" vector-effect="none" points="203.732,573.172 209.388,578.828 " />
<polyline fill="none" vector-effect="none" points="203.732,578.828 209.388,573.172 " />
<polyline fill="none" vector-effect="none" points="239.84,572 239.84,580 " />
<polyline fill="none" vector-effect="none" points="235.84,576 243.84,576 " />
<polyline fill="none" vector-effect="none" points="237.012,573.172 242.668,578.828 " />
<polyline fill="none" vector-effect="none" points="237.012,578.828 242.668,573.172 " />
<polyline fill="none" vector-effect="none" points="273.12,572 273.12,580 " />
<polyline fill="none" vector-effect="none" points="269.12,576 277.12,576 " />
<polyline fill="none" vector-effect="none" points="270.292,573.172 275.948,578.828 " />
<polyline fill="none" vector-effect="none" points="270.292,578.828 275.948,573.172 " />
<polyline fill="none" vector-effect="none" points="306.4,572 306.4,580 " />
<polyline fill="none" vector-effect="none" points="302.4,576 310.4,576 " />
<polyline fill="none" vector-effect="none" points="303.572,573.172 309.228,578.828 " />
<polyline fill="none" vector-effect="none" points="303.572,578.828 309.228,573.172 " />
<polyline fill="none" vector-effect="none" points="339.68,572 339.68,580 " />
<polyline fill="none" vector-effect="none" points="335.68,576 343.68,576 " />
<polyline fill="none" vector-effect="none" points="336.852,573.172 342.508,578.828 " />
<polyline fill="none" vector-effect="none" points="336.852,578.828 342.508,573.172 " />
<polyline fill="none" vector-effect="none" points="372.96,572 372.96,580 " />
<polyline fill="none" vector-effect="none" points="368.96,576 376.96,576 " />
<polyline fill="none" vector-effect="none" points="370.132,573.172 375.788,578.828 " />
<polyline fill="none" vector-effect="none" points="370.132,578.828 375.788,573.172 " />
<polyline fill="none" vector-effect="none" points="406.24,572 406.24,580 " />
<polyline fill="none" vector-effect="none" points="402.24,576 410.24,576 " />
<polyline fill="none" vector-effect="none" points="403.412,573.172 409.068,578.828 " />
<polyline fill="none" vector-effect="none" points="403.412,578.828 409.068,573.172 " />
<polyline fill="none" vector-effect="none" points="439.52,572 439.52,580 " />
<polyline fill="none" vector-effect="none" points="435.52,576 443.52,576 " />
<polyline fill="none" vector-effect="none" points="436.692,573.172 442.348,578.828 " />
<polyline fill="none" vector-effect="none" points="436.692,578.828 442.348,573.172 " />
<polyline fill="none" vector-effect="none" points="472.8,572 472.8,580 " />
<polyline fill="none" vector-effect="none" points="468.8,576 476.8,576 " />
<polyline fill="none" vector-effect="none" points="469.972,573.172 475.628,578.828 " />
<polyline fill="none" vector-effect="none" points="469.972,578.828 475.628,573.172 " />
<polyline fill="none" vector-effect="none" points="506.08,572 506.08,580 " />
<polyline fill="none" vector-effect="none" points="502.08,576 510.08,576 " />
<polyline fill="none" vector-effect="none" points="503.252,573.172 508.908,578.828 " />
<polyline fill="none" vector-effect="none" points="503.252,578.828 508.908,573.172 " />
<polyline fill="none" vector-effect="none" points="539.36,429.117 539.36,437.117 " />
<polyline fill="none" vector-effect="none" points="535.36,433.117 543.36,433.117 " />
<polyline fill="none" vector-effect="none" points="536.532,430.289 542.188,435.946 " />
<polyline fill="none" vector-effect="none" points="536.532,435.946 542.188,430.289 " />
<polyline fill="none" vector-effect="none" points="572.64,111.809 572.64,119.809 " />
<polyline fill="none" vector-effect="none" points="568.64,115.809 576.64,115.809 " />
<polyline fill="none" vector-effect="none" points="569.812,112.981 575.468,118.637 " />
<polyline fill="none" vector-effect="none" points="569.812,118.637 575.468,112.981 " />
<polyline fill="none" vector-effect="none" points="605.92,572 605.92,580 " />
<polyline fill="none" vector-effect="none" points="601.92,576 609.92,576 " />
<polyline fill="none" vector-effect="none" points="603.092,573.172 608.748,578.828 " />
<polyline fill="none" vector-effect="none" points="603.092,578.828 608.748,573.172 " />
<polyline fill="none" vector-effect="none" points="639.2,572 639.2,580 " />
<polyline fill="none" vector-effect="none" points="635.2,576 643.2,576 " />
<polyline fill="none" vector-effect="none" points="636.372,573.172 642.028,578.828 " />
<polyline fill="none" vector-effect="none" points="636.372,578.828 642.028,573.172 " />
<polyline fill="none" vector-effect="none" points="672.48,572 672.48,580 " />
<polyline fill="none" vector-effect="none" points="668.48,576 676.48,576 " />
<polyline fill="none" vector-effect="none" points="669.652,573.172 675.308,578.828 " />
<polyline fill="none" vector-effect="none" points="669.652,578.828 675.308,573.172 " />
<polyline fill="none" vector-effect="none" points="705.76,572 705.76,580 " />
<polyline fill="none" vector-effect="none" points="701.76,576 709.76,576 " />
<polyline fill="none" vector-effect="none" points="702.932,573.172 708.588,578.828 " />
<polyline fill="none" vector-effect="none" points="702.932,578.828 708.588,573.172 " />
<polyline fill="none" vector-effect="none" points="739.04,572 739.04,580 " />
<polyline fill="none" vector-effect="none" points="735.04,576 743.04,576 " />
<polyline fill="none" vector-effect="none" points="736.212,573.172 741.868,578.828 " />
<polyline fill="none" vector-effect="none" points="736.212,578.828 741.868,573.172 " />
<polyline fill="none" vector-effect="none" points="772.32,572 772.32,580 " />
<polyline fill="none" vector-effect="none" points="768.32,576 776.32,576 " />
<polyline fill="none" vector-effect="none" points="769.492,573.172 775.148,578.828 " />
<polyline fill="none" vector-effect="none" points="769.492,578.828 775.148,573.172 " />
<polyline fill="none" vector-effect="none" points="805.6,572 805.6,580 " />
<polyline fill="none" vector-effect="none" points="801.6,576 809.6,576 " />
<polyline fill="none" vector-effect="none" points="802.772,573.172 808.428,578.828 " />
<polyline fill="none" vector-effect="none" points="802.772,578.828 808.428,573.172 " />
<polyline fill="none" vector-effect="none" points="838.88,572 838.88,580 " />
<polyline fill="none" vector-effect="none" points="834.88,576 842.88,576 " />
<polyline fill="none" vector-effect="none" points="836.052,573.172 841.708,578.828 " />
<polyline fill="none" vector-effect="none" points="836.052,578.828 841.708,573.172 " />
<polyline fill="none" vector-effect="none" points="872.16,572 872.16,580 " />
<polyline fill="none" vector-effect="none" points="868.16,576 876.16,576 " />
<polyline fill="none" vector-effect="none" points="869.332,573.172 874.988,578.828 " />
<polyline fill="none" vector-effect="none" points="869.332,578.828 874.988,573.172 " />
<polyline fill="none" vector-effect="none" points="905.44,572 905.44,580 " />
<polyline fill="none" vector-effect="none" points="901.44,576 909.44,576 " />
<polyline fill="none" vector-effect="none" points="902.612,573.172 908.268,578.828 " />
<polyline fill="none" vector-effect="none" points="902.612,578.828 908.268,573.172 " />
<polyline fill="none" vector-effect="none" points="938.72,572 938.72,580 " />
<polyline fill="none" vector-effect="none" points="934.72,576 942.72,576 " />
<polyline fill="none" vector-effect="none" points="935.892,573.172 941.548,578.828 " />
<polyline fill="none" vector-effect="none" points="935.892,578.828 941.548,573.172 " />
</g>

<g fill="none" stroke="#ff8a00" stroke-opacity="1" stroke-width="2.66667" stroke-linecap="butt" stroke-linejoin="round" transform="matrix(0.75,0,0,0.75,0,0)"
font-family="Helvetica" font-size="13" font-weight="400" font-style="normal" 
>
<polyline fill="none" vector-effect="none" points="173.28,576 206.56,576 239.84,576 273.12,576 306.4,576 339.68,576 372.96,576 406.24,576 439.52,576 472.8,576 506.08,452.423 539.36,370.065 572.64,302.438 605.92,576 639.2,576 672.48,576 705.76,576 739.04,576 772.32,576 805.6,576 838.88,576 872.16,576 905.44,576 938.72,576 " />
</g>

<g fill="#ff8a00" fill-opacity="1" stroke="#ff8a00" stroke-opacity="1" stroke-width="2.66667" stroke-linecap="butt" stroke-linejoin="miter" stroke-miterlimit="5" transform="matrix(0.75,0,0,0.75,0,0)"
font-family="Helvetica" font-size="13" font-weight="400" font-style="normal" 
>
<polyline fill="none" vector-effect="none" points="173.28,572 173.28,580 " />
<polyline fill="none" vector-effect="none" points="169.28,576 177.28,576 " />
<polyline fill="none" vector-effect="none" points="170.452,573.172 176.108,578.828 " />
<polyline fill="none" vector-effect="none" points="170.452,578.828 176.108,573.172 " />
<polyline fill="none" vector-effect="none" points="206.56,572 206.56,580 " />
<polyline fill="none" vector-effect="none" points="202.56,576 210.56,576 " />
<polyline fill="none" vector-effect="none" points="203.732,573.172 209.388,578.828 " />
<polyline fill="none" vector-effect="none" points="203.732,578.828 209.388,573.172 " />
<polyline fill="none" vector-effect="none" points="239.84,572 239.84,580 " />
<polyline fill="none" vector-effect="none" points="235.84,576 243.84,576 " />
<polyline fill="none" vector-effect="none" points="237.012,573.172 242.668,578.828 " />
<polyline fill="none" vector-effect="none" points="237.012,578.828 242.668,573.172 " />
<polyline fill="none" vector-effect="none" points="273.12,572 273.12,580 " />
<polyline fill="none" vector-effect="none" points="269.12,576 277.12,576 " />
<polyline fill="none" vector-effect="none" points="270.292,573.172 275.948,578.828 " />
<polyline fill="none" vector-effect="none" points="270.292,578.828 275.948,573.172 " />
<polyline fill="none" vector-effect="none" points="306.4,572 306.4,580 " />
<polyline fill="none" vector-effect="none" points="302.4,576 310.4,576 " />
<polyline fill="none" vector-effect="none" points="303.572,573.172 309.228,578.828 " />
<polyline fill="none" vector-effect="none" points="303.572,578.828 309.228,573.172 " />
<polyline fill="none" vector-effect="none" points="339.68,572 339.68,580 " />
<polyline fill="none" vector-effect="none" points="335.68,576 343.68,576 " />
<polyline fill="none" vector-effect="none" points="336.852,573.172 342.508,578.828 " />
<polyline fill="none" vector-effect="none" points="336.852,578.828 342.508,573.172 " />
<polyline fill="none" vector-effect="none" points="372.96,572 372.96,580 " />
<polyline fill="none" vector-effect="none" points="368.96,576 376.96,576 " />
<polyline fill="none" vector-effect="none" points="370.132,573.172 375.788,578.828 " />
<polyline fill="none" vector-effect="none" points="370.132,578.828 375.788,573.172 " />
<polyline fill="none" vector-effect="none" points="406.24,572 406.24,580 " />
<polyline fill="none" vector-effect="none" points="402.24,576 410.24,576 " />
<polyline fill="none" vector-effect="none" points="403.412,573.172 409.068,578.828 " />
<polyline fill="none" vector-effect="none" points="403.412,578.828 409.068,573.172 " />
<polyline fill="none" vector-effect="none" points="439.52,572 439.52,580 " />
<polyline fill="none" vector-effect="none" points="435.52,576 443.52,576 " />
<polyline fill="none" vector-effect="none" points="436.692,573.172 442.348,578.828 " />
<polyline fill="none" vector-effect="none" points="436.692,578.828 442.348,573.172 " />
<polyline fill="none" vector-effect="none" points="472.8,572 472.8,580 " />
<polyline fill="none" vector-effect="none" points="468.8,576 476.8,576 " />
<polyline fill="none" vector-effect="none" points="469.972,573.172 475.628,578.828 " />
<polyline fill="none" vector-effect="none" points="469.972,578.828 475.628,573.172 " />
<polyline fill="none" vector-effect="none" points="506.08,448.423 506.08,456.423 " />
<polyline fill="none" vector-effect="none" points="502.08,452.423 510.08,452.423 " />
<polyline fill="none" vector-effect="none" points="503.252,449.595 508.908,455.252 " />
<polyline fill="none" vector-effect="none" points="503.252,455.252 508.908,449.595 " />
<polyline fill="none" vector-effect="none" points="539.36,366.065 539.36,374.065 " />
<polyline fill="none" vector-effect="none" points="535.36,370.065 543.36,370.065 " />
<polyline fill="none" vector-effect="none" points="536.532,367.237 542.188,372.894 " />
<polyline fill="none" vector-effect="none" points="536.532,372.894 542.188,367.237 " />
<polyline fill="none" vector-effect="none" points="572.64,298.438 572.64,306.438 " />
<polyline fill="none" vector-effect="none" points="568.64,302.438 576.64,302.438 " />
<polyline fill="none" vector-effect="none" points="569.812,299.609 575.468,305.266 " />
<polyline fill="none" vector-effect="none" points="569.812,305.266 575.468,299.609 " />
<polyline fill="none" vector-effect="none" points="605.92,572 605.92,580 " />
<polyline fill="none" vector-effect="none" points="601.92,576 609.92,576 " />
<polyline fill="none" vector-effect="none" points="603.092,573.172 608.748,578.828 " />
<polyline fill="none" vector-effect="none" points="603.092,578.828 608.748,573.172 " />
<polyline fill="none" vector-effect="none" points="639.2,572 639.2,580 " />
<polyline fill="none" vector-effect="none" points="635.2,576 643.2,576 " />
<polyline fill="none" vector-effect="none" points="636.372,573.172 642.028,578.828 " />
<polyline fill="none" vector-effect="none" points="636.372,578.828 642.028,573.172 " />
<polyline fill="none" vector-effect="none" points="672.48,572 672.48,580 " />
<polyline fill="none" vector-effect="none" points="668.48,576 676.48,576 " />
<polyline fill="none" vector-effect="none" points="669.652,573.172 675.308,578.828 " />
<polyline fill="none" vector-effect="none" points="669.652,578.828 675.308,573.172 " />
<polyline fill="none" vector-effect="none" points="705.76,572 705.76,580 " />
<polyline fill="none" vector-effect="none" points="701.76,576 709.76,576 " />
<polyline fill="none" vector-effect="none" points="702.932,573.172 708.588,578.828 " />
<polyline fill="none" vector-effect="none" points="702.932,578.828 708.588,573.172 " />
<polyline fill="none" vector-effect="none" points="739.04,572 739.04,580 " />
<polyline fill="none" vector-effect="none" points="735.04,576 743.04,576 " />
<polyline fill="none" vector-effect="none" points="736.212,573.172 741.868,578.828 " />
<polyline fill="none" vector-effect="none" points="736.212,578.828 741.868,573.172 " />
<polyline fill="none" vector-effect="none" points="772.32,572 772.32,580 " />
<polyline fill="none" vector-effect="none" points="768.32,576 776.32,576 " />
<polyline fill="none" vector-effect="none" points="769.492,573.172 775.148,578.828 " />
<polyline fill="none" vector-effect="none" points="769.492,578.828 775.148,573.172 " />
<polyline fill="none" vector-effect="none" points="805.6,572 805.6,580 " />
<polyline fill="none" vector-effect="none" points="801.6,576 809.6,576 " />
<polyline fill="none" vector-effect="none" points="802.772,573.172 808.428,578.828 " />
<polyline fill="none" vector-effect="none" points="802.772,578.828 808.428,573.172 " />
<polyline fill="none" vector-effect="none" points="838.88,572 838.88,580 " />
<polyline fill="none" vector-effect="none" points="834.88,576 842.88,576 " />
<polyline fill="none" vector-effect="none" points="836.052,573.172 841.708,578.828 " />
<polyline fill="none" vector-effect="none" points="836.052,578.828 841.708,573.172 " />
<polyline fill="none" vector-effect="none" points="872.16,572 872.16,580 " />
<polyline fill="none" vector-effect="none" points="868.16,576 876.16,576 " />
<polyline fill="none" vector-effect="none" points="869.332,573.172 874.988,578.828 " />
<polyline fill="none" vector-effect="none" points="869.332,578.828 874.988,573.172 " />
<polyline fill="none" vector-effect="none" points="905.44,572 905.44,580 " />
<polyline fill="none" vector-effect="none" points="901.44,576 909.44,576 " />
<polyline fill="none" vector-effect="none" points="902.612,573.172 908.268,578.828 " />
<polyline fill="none" vector-effect="none" points="902.612,578.828 908.268,573.172 " />
<polyline fill="none" vector-effect="none" points="938.72,572 938.72,580 " />
<polyline fill="none" vector-effect="none" points="934.72,576 942.72,576 " />
<polyline fill="none" vector-effect="none" points="935.892,573.172 941.548,578.828 " />
<polyline fill="none" vector-effect="none" points="935.892,578.828 941.548,573.172 " />
</g>

<g fill="none" stroke="#7840cc" stroke-opacity="1" stroke-width="2.66667" stroke-linecap="butt" stroke-linejoin="round" transform="matrix(0.75,0,0,0.75,0,0)"
font-family="Helvetica" font-size="13" font-weight="400" font-style="normal" 
>
<polyline fill="none" vector-effect="none" points="173.28,576 206.56,576 239.84,576 273.12,576 306.4,576 339.68,576 372.96,576 406.24,576 439.52,576 472.8,576 506.08,526.444 539.36,524.456 572.64,74.0266 605.92,576 639.2,576 672.48,576 705.76,576 739.04,576 772.32,576 805.6,576 838.88,576 872.16,576 905.44,576 938.72,576 " />
</g>

<g fill="#7840cc" fill-opacity="1" stroke="#7840cc" stroke-opacity="1" stroke-width="2.66667" stroke-linecap="butt" stroke-linejoin="miter" stroke-miterlimit="5" transform="matrix(0.75,0,0,0.75,0,0)"
font-family="Helvetica" font-size="13" font-weight="400" font-style="normal" 
>
<polyline fill="none" vector-effect="none" points="173.28,572 173.28,580 " />
<polyline fill="none" vector-effect="none" points="169.28,576 177.28,576 " />
<polyline fill="none" vector-effect="none" points="170.452,573.172 176.108,578.828 " />
<polyline fill="none" vector-effect="none" points="170.452,578.828 176.108,573.172 " />
<polyline fill="none" vector-effect="none" points="206.56,572 206.56,580 " />
<polyline fill="none" vector-effect="none" points="202.56,576 210.56,576 " />
<polyline fill="none" vector-effect="none" points="203.732,573.172 209.388,578.828 " />
<polyline fill="none" vector-effect="none" points="203.732,578.828 209.388,573.172 " />
<polyline fill="none" vector-effect="none" points="239.84,572 239.84,580 " />
<polyline fill="none" vector-effect="none" points="235.84,576 243.84,576 " />
<polyline fill="none" vector-effect="none" points="237.012,573.172 242.668,578.828 " />
<polyline fill="none" vector-effect="none" points="237.012,578.828 242.668,573.172 " />
<polyline fill="none" vector-effect="none" points="273.12,572 273.12,580 " />
<polyline fill="none" vector-effect="none" points="269.12,576 277.12,576 " />
<polyline fill="none" vector-effect="none" points="270.292,573.172 275.948,578.828 " />
<polyline fill="none" vector-effect="none" points="270.292,578.828 275.948,573.172 " />
<polyline fill="none" vector-effect="none" points="306.4,572 306.4,580 " />
<polyline fill="none" vector-effect="none" points="302.4,576 310.4,576 " />
<polyline fill="none" vector-effect="none" points="303.572,573.172 309.228,578.828 " />
<polyline fill="none" vector-effect="none" points="303.572,578.828 309.228,573.172 " />
<polyline fill="none" vector-effect="none" points="339.68,572 339.68,580 " />
<polyline fill="none" vector-effect="none" points="335.68,576 343.68,576 " />
<polyline fill="none" vector-effect="none" points="336.852,573.172 342.508,578.828 " />
<polyline fill="none" vector-effect="none" points="336.852,578.828 342.508,573.172 " />
<polyline fill="none" vector-effect="none" points="372.96,572 372.96,580 " />
<polyline fill="none" vector-effect="none" points="368.96,576 376.96,576 " />
<polyline fill="none" vector-effect="none" points="370.132,573.172 375.788,578.828 " />
<polyline fill="none" vector-effect="none" points="370.132,578.828 375.788,573.172 " />
<polyline fill="none" vector-effect="none" points="406.24,572 406.24,580 " />
<polyline fill="none" vector-effect="none" points="402.24,576 410.24,576 " />
<polyline fill="none" vector-effect="none" points="403.412,573.172 409.068,578.828 " />
<polyline fill="none" vector-effect="none" points="403.412,578.828 409.068,573.172 " />
<polyline fill="none" vector-effect="none" points="439.52,572 439.52,580 " />
<polyline fill="none" vector-effect="none" points="435.52,576 443.52,576 " />
<polyline fill="none" vector-effect="none" points="436.692,573.172 442.348,578.828 " />
<polyline fill="none" vector-effect="none" points="436.692,578.828 442.348,573.172 " />
<polyline fill="none" vector-effect="none" points="472.8,572 472.8,580 " />
<polyline fill="none" vector-effect="none" points="468.8,576 476.8,576 " />
<polyline fill="none" vector-effect="none" points="469.972,573.172 475.628,578.828 " />
<polyline fill="none" vector-effect="none" points="469.972,578.828 475.628,573.172 " />
<polyline fill="none" vector-effect="none" points="506.08,522.444 506.08,530.444 " />
<polyline fill="none" vector-effect="none" points="502.08,526.444 510.08,526.444 " />
<polyline fill="none" vector-effect="none" points="503.252,523.616 508.908,529.273 " />
<polyline fill="none" vector-effect="none" points="503.252,529.273 508.908,523.616 " />
<polyline fill="none" vector-effect="none" points="539.36,520.456 539.36,528.456 " />
<polyline fill="none" vector-effect="none" points="535.36,524.456 543.36,524.456 " />
<polyline fill="none" vector-effect="none" points="536.532,521.627 542.188,527.284 " />
<polyline fill="none" vector-effect="none" points="536.532,527.284 542.188,521.627 " />
<polyline fill="none" vector-effect="none" points="572.64,70.0266 572.64,78.0266 " />
<polyline fill="none" vector-effect="none" points="568.64,74.0266 576.64,74.0266 " />
<polyline fill="none" vector-effect="none" points="569.812,71.1982 575.468,76.8551 " />
<polyline fill="none" vector-effect="none" points="569.812,76.8551 575.468,71.1982 " />
<polyline fill="none" vector-effect="none" points="605.92,572 605.92,580 " />
<polyline fill="none" vector-effect="none" points="601.92,576 609.92,576 " />
<polyline fill="none" vector-effect="none" points="603.092,573.172 608.748,578.828 " />
<polyline fill="none" vector-effect="none" points="603.092,578.828 608.748,573.172 " />
<polyline fill="none" vector-effect="none" points="639.2,572 639.2,580 " />
<polyline fill="none" vector-effect="none" points="635.2,576 643.2,576 " />
<polyline fill="none" vector-effect="none" points="636.372,573.172 642.028,578.828 " />
<polyline fill="none" vector-effect="none" points="636.372,578.828 642.028,573.172 " />
<polyline fill="none" vector-effect="none" points="672.48,572 672.48,580 " />
<polyline fill="none" vector-effect="none" points="668.48,576 676.48,576 " />
<polyline fill="none" vector-effect="none" points="669.652,573.172 675.308,578.828 " />
<polyline fill="none" vector-effect="none" points="669.652,578.828 675.308,573.172 " />
<polyline fill="none" vector-effect="none" points="705.76,572 705.76,580 " />
<polyline fill="none" vector-effect="none" points="701.76,576 709.76,576 " />
<polyline fill="none" vector-effect="none" points="702.932,573.172 708.588,578.828 " />
<polyline fill="none" vector-effect="none" points="702.932,578.828 708.588,573.172 " />
<polyline fill="none" vector-effect="none" points="739.04,572 739.04,580 " />
<polyline fill="none" vector-effect="none" points="735.04,576 743.04,576 " />
<polyline fill="none" vector-effect="none" points="736.212,573.172 741.868,578.828 " />
<polyline fill="none" vector-effect="none" points="736.212,578.828 741.868,573.172 " />
<polyline fill="none" vector-effect="none" points="772.32,572 772.32,580 " />
<polyline fill="none" vector-effect="none" points="768.32,576 776.32,576 " />
<polyline fill="none" vector-effect="none" points="769.492,573.172 775.148,578.828 " />
<polyline fill="none" vector-effect="none" points="769.492,578.828 775.148,573.172 " />
<polyline fill="none" vector-effect="none" points="805.6,572 805.6,580 " />
<polyline fill="none" vector-effect="none" points="801.6,576 809.6,576 " />
<polyline fill="none" vector-effect="none" points="802.772,573.172 808.428,578.828 " />
<polyline fill="none" vector-effect="none" points="802.772,578.828 808.428,573.172 " />
<polyline fill="none" vector-effect="none" points="838.88,572 838.88,580 " />
<polyline fill="none" vector-effect="none" points="834.88,576 842.88,576 " />
<polyline fill="none" vector-effect="none" points="836.052,573.172 841.708,578.828 " />
<polyline fill="none" vector-effect="none" points="836.052,578.828 841.708,573.172 " />
<polyline fill="none" vector-effect="none" points="872.16,572 872.16,580 " />
<polyline fill="none" vector-effect="none" points="868.16,576 876.16,576 " />
<polyline fill="none" vector-effect="none" points="869.332,573.172 874.988,578.828 " />
<polyline fill="none" vector-effect="none" points="869.332,578.828 874.988,573.172 " />
<polyline fill="none" vector-effect="none" points="905.44,572 905.44,580 " />
<polyline fill="none" vector-effect="none" points="901.44,576 909.44,576 " />
<polyline fill="none" vector-effect="none" points="902.612,573.172 908.268,578.828 " />
<polyline fill="none" vector-effect="none" points="902.612,578.828 908.268,573.172 " />
<polyline fill="none" vector-effect="none" points="938.72,572 938.72,580 " />
<polyline fill="none" vector-effect="none" points="934.72,576 942.72,576 " />
<polyline fill="none" vector-effect="none" points="935.892,573.172 941.548,578.828 " />
<polyline fill="none" vector-effect="none" points="935.892,578.828 941.548,573.172 " />
</g>

<g fill="#ffffff" fill-opacity="1" stroke="none" transform="matrix(7.5e-05,0,0,7.5e-05,0,0)"
font-family="Helvetica" font-size="13" font-weight="400" font-style="normal" 
>
<path vector-effect="none" fill-rule="evenodd" d="M8.52e+06,600000 L8.52e+06,1.07e+06 L9.61e+06,1.07e+06 L9.61e+06,600000 L8.52e+06,600000"/>
</g>

<g fill="#d42424" fill-opacity="1" stroke="#d42424" stroke-opacity="1" stroke-width="2.66667" stroke-linecap="butt" stroke-linejoin="round" transform="matrix(0.75,0,0,0.75,0,0)"
font-family="Helvetica" font-size="13" font-weight="400" font-style="normal" 
>
<polyline fill="none" vector-effect="none" points="856,69 896,69 " />
</g>

<g fill="#d42424" fill-opacity="1" stroke="#d42424" stroke-opacity="1" stroke-width="2.66667" stroke-linecap="butt" stroke-linejoin="miter" stroke-miterlimit="5" transform="matrix(0.75,0,0,0.75,0,0)"
font-family="Helvetica" font-size="13" font-weight="400" font-style="normal" 
>
<polyline fill="none" vector-effect="none" points="876,65 876,73 " />
<polyline fill="none" vector-effect="none" points="872,69 880,69 " />
<polyline fill="none" vector-effect="none" points="873.172,66.1716 878.828,71.8284 " />
<polyline fill="none" vector-effect="none" points="873.172,71.8284 878.828,66.1716 " />
</g>

<g fill="#ff8a00" fill-opacity="1" stroke="#ff8a00" stroke-opacity="1" stroke-width="2.66667" stroke-linecap="butt" stroke-linejoin="round" transform="matrix(0.75,0,0,0.75,0,0)"
font-family="Helvetica" font-size="13" font-weight="400" font-style="normal" 
>
<polyline fill="none" vector-effect="none" points="856,83.5 896,83.5 " />
</g>

<g fill="#ff8a00" fill-opacity="1" stroke="#ff8a00" stroke-opacity="1" stroke-width="2.66667" stroke-linecap="butt" stroke-linejoin="miter" stroke-miterlimit="5" transform="matrix(0.75,0,0,0.75,0,0)"
font-family="Helvetica" font-size="13" font-weight="400" font-style="normal" 
>
<polyline fill="none" vector-effect="none" points="876,79.5 876,87.5 " />
<polyline fill="none" vector-effect="none" points="872,83.5 880,83.5 " />
<polyline fill="none" vector-effect="none" points="873.172,80.6716 878.828,86.3284 " />
<polyline fill="none" vector-effect="none" points="873.172,86.3284 878.828,80.6716 " />
</g>

<g fill="#7840cc" fill-opacity="1" stroke="#7840cc" stroke-opacity="1" stroke-width="2.66667" stroke-linecap="butt" stroke-linejoin="round" transform="matrix(0.75,0,0,0.75,0,0)"
font-family="Helvetica" font-size="13" font-weight="400" font-style="normal" 
>
<polyline fill="none" vector-effect="none" points="856,98 896,98 " />
</g>

<g fill="#7840cc" fill-opacity="1" stroke="#7840cc" stroke-opacity="1" stroke-width="2.66667" stroke-linecap="butt" stroke-linejoin="miter" stroke-miterlimit="5" transform="matrix(0.75,0,0,0.75,0,0)"
font-family="Helvetica" font-size="13" font-weight="400" font-style="normal" 
>
<polyline fill="none" vector-effect="none" points="876,94 876,102 " />
<polyline fill="none" vector-effect="none" points="872,98 880,98 " />
<polyline fill="none" vector-effect="none" points="873.172,95.1716 878.828,100.828 " />
<polyline fill="none" vector-effect="none" points="873.172,100.828 878.828,95.1716 " />
</g>

<g fill="#212121" fill-opacity="1" stroke="#212121" stroke-opacity="1" stroke-width="1" stroke-linecap="square" stroke-linejoin="bevel" transform="matrix(0.75,0,0,0.75,674.25,54.75)"
font-family="Helvetica" font-size="12" font-weight="400" font-style="normal" 
>
<text fill="#212121" fill-opacity="1" stroke="none" xml:space="preserve" x="0" y="0" font-family="Helvetica" font-size="12" font-weight="400" font-style="normal" 
 >Scenario 1</text>
</g>

<g fill="#212121" fill-opacity="1" stroke="#212121" stroke-opacity="1" stroke-width="1" stroke-linecap="square" stroke-linejoin="bevel" transform="matrix(0.75,0,0,0.75,674.25,65.625)"
font-family="Helvetica" font-size="12" font-weight="400" font-style="normal" 
>
<text fill="#212121" fill-opacity="1" stroke="none" xml:space="preserve" x="0" y="0" font-family="Helvetica" font-size="12" font-weight="400" font-style="normal" 
 >Scenario 2</text>
</g>

<g fill="#212121" fill-opacity="1" stroke="#212121" stroke-opacity="1" stroke-width="1" stroke-linecap="square" stroke-linejoin="bevel" transform="matrix(0.75,0,0,0.75,674.25,76.5)"
font-family="Helvetica" font-size="12" font-weight="400" font-style="normal" 
>
<text fill="#212121" fill-opacity="1" stroke="none" xml:space="preserve" x="0" y="0" font-family="Helvetica" font-size="12" font-weight="400" font-style="normal" 
 >Scenario 3</text>
</g>

<g fill="none" stroke="#212121" stroke-opacity="1" stroke-width="0.666667" stroke-linecap="butt" stroke-linejoin="miter" stroke-miterlimit="5" transform="matrix(0.75,0,0,0.75,0,0)"
font-family="Helvetica" font-size="12" font-weight="400" font-style="normal" 
>
<path vector-effect="none" fill-rule="evenodd" d="M852,107 L852,60 L961,60 L961,107 L852,107"/>
</g>
</g>
</svg>
